<mxfile host="app.diagrams.net" agent="Mozilla/5.0 (Windows NT 10.0; Win64; x64) AppleWebKit/537.36 (KHTML, like Gecko) Chrome/131.0.0.0 Safari/537.36" version="25.0.3">
  <diagram name="Side-1" id="4E3iBMSYqkPa-NEdS96S">
    <mxGraphModel grid="0" page="1" gridSize="10" guides="1" tooltips="1" connect="1" arrows="1" fold="1" pageScale="1" pageWidth="827" pageHeight="1169" math="0" shadow="0">
      <root>
        <mxCell id="0" />
        <mxCell id="1" parent="0" />
        <mxCell id="vp3OlqydRExEkUfF7Wdn-2" value="ESP32&lt;div&gt;&lt;span style=&quot;font-weight: normal;&quot;&gt;&lt;i&gt;&amp;lt;&amp;lt;Controller&amp;gt;&amp;gt;&lt;/i&gt;&lt;/span&gt;&lt;/div&gt;" style="swimlane;fontStyle=1;align=center;verticalAlign=top;childLayout=stackLayout;horizontal=1;startSize=40;horizontalStack=0;resizeParent=1;resizeParentMax=0;resizeLast=0;collapsible=1;marginBottom=0;whiteSpace=wrap;html=1;" vertex="1" parent="1">
          <mxGeometry x="269" y="290" width="160" height="100" as="geometry" />
        </mxCell>
        <mxCell id="vp3OlqydRExEkUfF7Wdn-3" value="&amp;nbsp;" style="text;strokeColor=none;fillColor=none;align=left;verticalAlign=top;spacingLeft=4;spacingRight=4;overflow=hidden;rotatable=0;points=[[0,0.5],[1,0.5]];portConstraint=eastwest;whiteSpace=wrap;html=1;" vertex="1" parent="vp3OlqydRExEkUfF7Wdn-2">
          <mxGeometry y="40" width="160" height="26" as="geometry" />
        </mxCell>
        <mxCell id="vp3OlqydRExEkUfF7Wdn-4" value="" style="line;strokeWidth=1;fillColor=none;align=left;verticalAlign=middle;spacingTop=-1;spacingLeft=3;spacingRight=3;rotatable=0;labelPosition=right;points=[];portConstraint=eastwest;strokeColor=inherit;" vertex="1" parent="vp3OlqydRExEkUfF7Wdn-2">
          <mxGeometry y="66" width="160" height="8" as="geometry" />
        </mxCell>
        <mxCell id="vp3OlqydRExEkUfF7Wdn-5" value="&amp;nbsp;" style="text;strokeColor=none;fillColor=none;align=left;verticalAlign=top;spacingLeft=4;spacingRight=4;overflow=hidden;rotatable=0;points=[[0,0.5],[1,0.5]];portConstraint=eastwest;whiteSpace=wrap;html=1;" vertex="1" parent="vp3OlqydRExEkUfF7Wdn-2">
          <mxGeometry y="74" width="160" height="26" as="geometry" />
        </mxCell>
        <mxCell id="XFf1zaJcwKOp8VnSxDQC-5" value="&lt;code&gt;Endpoints&lt;/code&gt;&lt;br&gt;&lt;div&gt;&lt;span style=&quot;font-weight: normal;&quot;&gt;&lt;i&gt;&amp;lt;&amp;lt;Boundary&amp;gt;&amp;gt;&lt;/i&gt;&lt;/span&gt;&lt;/div&gt;" style="swimlane;fontStyle=1;align=center;verticalAlign=top;childLayout=stackLayout;horizontal=1;startSize=40;horizontalStack=0;resizeParent=1;resizeParentMax=0;resizeLast=0;collapsible=1;marginBottom=0;whiteSpace=wrap;html=1;" vertex="1" parent="1">
          <mxGeometry x="-79" y="443" width="160" height="100" as="geometry" />
        </mxCell>
        <mxCell id="XFf1zaJcwKOp8VnSxDQC-6" value="&amp;nbsp;" style="text;strokeColor=none;fillColor=none;align=left;verticalAlign=top;spacingLeft=4;spacingRight=4;overflow=hidden;rotatable=0;points=[[0,0.5],[1,0.5]];portConstraint=eastwest;whiteSpace=wrap;html=1;" vertex="1" parent="XFf1zaJcwKOp8VnSxDQC-5">
          <mxGeometry y="40" width="160" height="26" as="geometry" />
        </mxCell>
        <mxCell id="XFf1zaJcwKOp8VnSxDQC-7" value="" style="line;strokeWidth=1;fillColor=none;align=left;verticalAlign=middle;spacingTop=-1;spacingLeft=3;spacingRight=3;rotatable=0;labelPosition=right;points=[];portConstraint=eastwest;strokeColor=inherit;" vertex="1" parent="XFf1zaJcwKOp8VnSxDQC-5">
          <mxGeometry y="66" width="160" height="8" as="geometry" />
        </mxCell>
        <mxCell id="XFf1zaJcwKOp8VnSxDQC-8" value="&amp;nbsp;" style="text;strokeColor=none;fillColor=none;align=left;verticalAlign=top;spacingLeft=4;spacingRight=4;overflow=hidden;rotatable=0;points=[[0,0.5],[1,0.5]];portConstraint=eastwest;whiteSpace=wrap;html=1;" vertex="1" parent="XFf1zaJcwKOp8VnSxDQC-5">
          <mxGeometry y="74" width="160" height="26" as="geometry" />
        </mxCell>
        <mxCell id="XFf1zaJcwKOp8VnSxDQC-13" value="&lt;code&gt;HTU&lt;/code&gt;&lt;br&gt;&lt;div&gt;&lt;span style=&quot;font-weight: normal;&quot;&gt;&lt;i&gt;&amp;lt;&amp;lt;Boundary&amp;gt;&amp;gt;&lt;/i&gt;&lt;/span&gt;&lt;/div&gt;" style="swimlane;fontStyle=1;align=center;verticalAlign=top;childLayout=stackLayout;horizontal=1;startSize=40;horizontalStack=0;resizeParent=1;resizeParentMax=0;resizeLast=0;collapsible=1;marginBottom=0;whiteSpace=wrap;html=1;" vertex="1" parent="1">
          <mxGeometry x="488" y="66" width="257" height="255" as="geometry" />
        </mxCell>
        <mxCell id="XFf1zaJcwKOp8VnSxDQC-14" value="+ readTemperature(): float&lt;br/&gt;+ readHumidity(): float&lt;br/&gt;+ writeCommand(command: uint8_t): void&lt;br/&gt;+ readRawData(): int" style="text;strokeColor=none;fillColor=none;align=left;verticalAlign=top;spacingLeft=4;spacingRight=4;overflow=hidden;rotatable=0;points=[[0,0.5],[1,0.5]];portConstraint=eastwest;whiteSpace=wrap;html=1;" vertex="1" parent="XFf1zaJcwKOp8VnSxDQC-13">
          <mxGeometry y="40" width="257" height="75" as="geometry" />
        </mxCell>
        <mxCell id="XFf1zaJcwKOp8VnSxDQC-15" value="" style="line;strokeWidth=1;fillColor=none;align=left;verticalAlign=middle;spacingTop=-1;spacingLeft=3;spacingRight=3;rotatable=0;labelPosition=right;points=[];portConstraint=eastwest;strokeColor=inherit;" vertex="1" parent="XFf1zaJcwKOp8VnSxDQC-13">
          <mxGeometry y="115" width="257" height="8" as="geometry" />
        </mxCell>
        <mxCell id="XFf1zaJcwKOp8VnSxDQC-16" value="-&amp;nbsp;&lt;code style=&quot;&quot;&gt;&lt;span class=&quot;hljs-title&quot;&gt;writeCommand&lt;/span&gt;&lt;span class=&quot;hljs-params&quot;&gt;&lt;span class=&quot;hljs-params&quot;&gt;(&lt;/span&gt;&lt;span class=&quot;hljs-type&quot;&gt;uint8_t&lt;/span&gt;&lt;span class=&quot;hljs-params&quot;&gt; command)&lt;/span&gt;&lt;/span&gt;&lt;/code&gt;&lt;div&gt;&lt;div&gt;&lt;code&gt;&lt;span class=&quot;hljs-params&quot;&gt;&lt;span class=&quot;hljs-params&quot;&gt;-&lt;/span&gt;&lt;/span&gt;&lt;/code&gt;&lt;span style=&quot;background-color: initial;&quot; class=&quot;hljs-title&quot;&gt;readRawData&lt;/span&gt;&lt;span style=&quot;background-color: initial;&quot; class=&quot;hljs-params&quot;&gt;()&lt;/span&gt;&lt;/div&gt;&lt;div&gt;&lt;span style=&quot;background-color: initial;&quot; class=&quot;hljs-params&quot;&gt;-&amp;nbsp;&lt;/span&gt;&lt;span style=&quot;background-color: initial;&quot; class=&quot;hljs-title&quot;&gt;softReset&lt;/span&gt;&lt;span style=&quot;background-color: initial;&quot; class=&quot;hljs-params&quot;&gt;()&lt;/span&gt;&lt;/div&gt;&lt;div&gt;&lt;span style=&quot;background-color: initial;&quot; class=&quot;hljs-params&quot;&gt;-&amp;nbsp;&lt;/span&gt;&lt;span style=&quot;background-color: initial;&quot; class=&quot;hljs-title&quot;&gt;convertToTemperature&lt;/span&gt;&lt;span style=&quot;background-color: initial;&quot; class=&quot;hljs-params&quot;&gt;&lt;span class=&quot;hljs-params&quot;&gt;(&lt;/span&gt;&lt;span class=&quot;hljs-type&quot;&gt;int&lt;/span&gt;&lt;span class=&quot;hljs-params&quot;&gt; rawTemp)&lt;/span&gt;&lt;/span&gt;&lt;/div&gt;&lt;div&gt;&lt;span style=&quot;background-color: initial;&quot; class=&quot;hljs-params&quot;&gt;&lt;span class=&quot;hljs-params&quot;&gt;-&amp;nbsp;&lt;/span&gt;&lt;/span&gt;&lt;span style=&quot;background-color: initial;&quot; class=&quot;hljs-type&quot;&gt;float&lt;/span&gt;&lt;span style=&quot;background-color: initial;&quot; class=&quot;hljs-function&quot;&gt; &lt;/span&gt;&lt;span style=&quot;background-color: initial;&quot; class=&quot;hljs-title&quot;&gt;convertToHumidity&lt;/span&gt;&lt;span style=&quot;background-color: initial;&quot; class=&quot;hljs-params&quot;&gt;&lt;span style=&quot;&quot; class=&quot;hljs-params&quot;&gt;(&lt;/span&gt;&lt;span style=&quot;&quot; class=&quot;hljs-type&quot;&gt;int&lt;/span&gt;&lt;span style=&quot;&quot; class=&quot;hljs-params&quot;&gt; rawHumidity)&lt;/span&gt;&lt;/span&gt;&lt;/div&gt;&lt;/div&gt;" style="text;strokeColor=none;fillColor=none;align=left;verticalAlign=top;spacingLeft=4;spacingRight=4;overflow=hidden;rotatable=0;points=[[0,0.5],[1,0.5]];portConstraint=eastwest;whiteSpace=wrap;html=1;" vertex="1" parent="XFf1zaJcwKOp8VnSxDQC-13">
          <mxGeometry y="123" width="257" height="132" as="geometry" />
        </mxCell>
        <mxCell id="XFf1zaJcwKOp8VnSxDQC-17" value="&lt;code&gt;DisplayHandler&lt;/code&gt;&lt;br&gt;&lt;div&gt;&lt;span style=&quot;font-weight: normal;&quot;&gt;&lt;i&gt;&amp;lt;&amp;lt;Boundary&amp;gt;&amp;gt;&lt;/i&gt;&lt;/span&gt;&lt;/div&gt;" style="swimlane;fontStyle=1;align=center;verticalAlign=top;childLayout=stackLayout;horizontal=1;startSize=40;horizontalStack=0;resizeParent=1;resizeParentMax=0;resizeLast=0;collapsible=1;marginBottom=0;whiteSpace=wrap;html=1;" vertex="1" parent="1">
          <mxGeometry x="-108" y="91" width="324" height="244" as="geometry" />
        </mxCell>
        <mxCell id="XFf1zaJcwKOp8VnSxDQC-18" value="+ initDisplay(): void&lt;br/&gt;+ clear(): void&lt;br/&gt;+ showMessage(message: char*, x: int, y: int, clear: bool): void&lt;br/&gt;+ showData(label: char*, value: int, voltage: float, x: int, y: int, clear: bool): void&lt;br/&gt;+ showDirection(direction: String, value: int, x: int, y: int, clear: bool): void&lt;br/&gt;+ showTempAndHumidity(temperature: float, humidity: float, x: int, y: int): void" style="text;strokeColor=none;fillColor=none;align=left;verticalAlign=top;spacingLeft=4;spacingRight=4;overflow=hidden;rotatable=0;points=[[0,0.5],[1,0.5]];portConstraint=eastwest;whiteSpace=wrap;html=1;" vertex="1" parent="XFf1zaJcwKOp8VnSxDQC-17">
          <mxGeometry y="40" width="324" height="170" as="geometry" />
        </mxCell>
        <mxCell id="XFf1zaJcwKOp8VnSxDQC-19" value="" style="line;strokeWidth=1;fillColor=none;align=left;verticalAlign=middle;spacingTop=-1;spacingLeft=3;spacingRight=3;rotatable=0;labelPosition=right;points=[];portConstraint=eastwest;strokeColor=inherit;" vertex="1" parent="XFf1zaJcwKOp8VnSxDQC-17">
          <mxGeometry y="210" width="324" height="8" as="geometry" />
        </mxCell>
        <mxCell id="XFf1zaJcwKOp8VnSxDQC-20" value="- tft: TFT_eSPI" style="text;strokeColor=none;fillColor=none;align=left;verticalAlign=top;spacingLeft=4;spacingRight=4;overflow=hidden;rotatable=0;points=[[0,0.5],[1,0.5]];portConstraint=eastwest;whiteSpace=wrap;html=1;" vertex="1" parent="XFf1zaJcwKOp8VnSxDQC-17">
          <mxGeometry y="218" width="324" height="26" as="geometry" />
        </mxCell>
        <mxCell id="XFf1zaJcwKOp8VnSxDQC-22" value="" style="endArrow=open;html=1;rounded=0;exitX=0.5;exitY=0;exitDx=0;exitDy=0;entryX=1;entryY=0.5;entryDx=0;entryDy=0;endFill=0;" edge="1" parent="1" source="vp3OlqydRExEkUfF7Wdn-2" target="XFf1zaJcwKOp8VnSxDQC-18">
          <mxGeometry width="50" height="50" relative="1" as="geometry">
            <mxPoint x="340" y="212" as="sourcePoint" />
            <mxPoint x="451" y="200" as="targetPoint" />
            <Array as="points">
              <mxPoint x="349" y="216" />
            </Array>
          </mxGeometry>
        </mxCell>
        <mxCell id="XFf1zaJcwKOp8VnSxDQC-23" value="" style="endArrow=open;html=1;rounded=0;entryX=1;entryY=0;entryDx=0;entryDy=0;endFill=0;" edge="1" parent="1" target="vp3OlqydRExEkUfF7Wdn-2">
          <mxGeometry width="50" height="50" relative="1" as="geometry">
            <mxPoint x="493" y="184" as="sourcePoint" />
            <mxPoint x="430" y="210" as="targetPoint" />
            <Array as="points">
              <mxPoint x="429" y="184" />
            </Array>
          </mxGeometry>
        </mxCell>
        <mxCell id="XFf1zaJcwKOp8VnSxDQC-24" value="" style="endArrow=open;html=1;rounded=0;exitX=0.25;exitY=0;exitDx=0;exitDy=0;entryX=1;entryY=0.5;entryDx=0;entryDy=0;endFill=0;" edge="1" parent="1" source="XFf1zaJcwKOp8VnSxDQC-34" target="vp3OlqydRExEkUfF7Wdn-5">
          <mxGeometry width="50" height="50" relative="1" as="geometry">
            <mxPoint x="494" y="395.2500000000001" as="sourcePoint" />
            <mxPoint x="430" y="440" as="targetPoint" />
            <Array as="points">
              <mxPoint x="515" y="377" />
            </Array>
          </mxGeometry>
        </mxCell>
        <mxCell id="XFf1zaJcwKOp8VnSxDQC-26" value="cd (uc2)" style="shape=umlFrame;whiteSpace=wrap;html=1;pointerEvents=0;" vertex="1" parent="1">
          <mxGeometry x="-118" y="41" width="911" height="549" as="geometry" />
        </mxCell>
        <mxCell id="XFf1zaJcwKOp8VnSxDQC-27" value="&lt;font face=&quot;monospace&quot;&gt;Webserver&lt;/font&gt;&lt;br&gt;&lt;div&gt;&lt;span style=&quot;font-weight: normal;&quot;&gt;&lt;i&gt;&amp;lt;&amp;lt;Boundary&amp;gt;&amp;gt;&lt;/i&gt;&lt;/span&gt;&lt;/div&gt;" style="swimlane;fontStyle=1;align=center;verticalAlign=top;childLayout=stackLayout;horizontal=1;startSize=40;horizontalStack=0;resizeParent=1;resizeParentMax=0;resizeLast=0;collapsible=1;marginBottom=0;whiteSpace=wrap;html=1;" vertex="1" parent="1">
          <mxGeometry x="245" y="447" width="160" height="100" as="geometry" />
        </mxCell>
        <mxCell id="XFf1zaJcwKOp8VnSxDQC-28" value="&amp;nbsp;" style="text;strokeColor=none;fillColor=none;align=left;verticalAlign=top;spacingLeft=4;spacingRight=4;overflow=hidden;rotatable=0;points=[[0,0.5],[1,0.5]];portConstraint=eastwest;whiteSpace=wrap;html=1;" vertex="1" parent="XFf1zaJcwKOp8VnSxDQC-27">
          <mxGeometry y="40" width="160" height="26" as="geometry" />
        </mxCell>
        <mxCell id="XFf1zaJcwKOp8VnSxDQC-29" value="" style="line;strokeWidth=1;fillColor=none;align=left;verticalAlign=middle;spacingTop=-1;spacingLeft=3;spacingRight=3;rotatable=0;labelPosition=right;points=[];portConstraint=eastwest;strokeColor=inherit;" vertex="1" parent="XFf1zaJcwKOp8VnSxDQC-27">
          <mxGeometry y="66" width="160" height="8" as="geometry" />
        </mxCell>
        <mxCell id="XFf1zaJcwKOp8VnSxDQC-30" value="&amp;nbsp;" style="text;strokeColor=none;fillColor=none;align=left;verticalAlign=top;spacingLeft=4;spacingRight=4;overflow=hidden;rotatable=0;points=[[0,0.5],[1,0.5]];portConstraint=eastwest;whiteSpace=wrap;html=1;" vertex="1" parent="XFf1zaJcwKOp8VnSxDQC-27">
          <mxGeometry y="74" width="160" height="26" as="geometry" />
        </mxCell>
        <mxCell id="XFf1zaJcwKOp8VnSxDQC-31" value="" style="endArrow=open;html=1;rounded=0;exitX=0.268;exitY=1.045;exitDx=0;exitDy=0;entryX=0.25;entryY=0;entryDx=0;entryDy=0;endFill=0;exitPerimeter=0;" edge="1" parent="1" source="vp3OlqydRExEkUfF7Wdn-5" target="XFf1zaJcwKOp8VnSxDQC-27">
          <mxGeometry width="50" height="50" relative="1" as="geometry">
            <mxPoint x="374" y="460" as="sourcePoint" />
            <mxPoint x="386" y="380" as="targetPoint" />
            <Array as="points">
              <mxPoint x="312" y="410" />
              <mxPoint x="285" y="410" />
            </Array>
          </mxGeometry>
        </mxCell>
        <mxCell id="XFf1zaJcwKOp8VnSxDQC-32" value="" style="endArrow=open;html=1;rounded=0;exitX=0;exitY=0.5;exitDx=0;exitDy=0;endFill=0;entryX=1;entryY=0.5;entryDx=0;entryDy=0;" edge="1" parent="1" source="XFf1zaJcwKOp8VnSxDQC-28" target="XFf1zaJcwKOp8VnSxDQC-6">
          <mxGeometry width="50" height="50" relative="1" as="geometry">
            <mxPoint x="343" y="341" as="sourcePoint" />
            <mxPoint x="230" y="510" as="targetPoint" />
          </mxGeometry>
        </mxCell>
        <mxCell id="XFf1zaJcwKOp8VnSxDQC-34" value="&lt;font face=&quot;monospace&quot;&gt;Lys&lt;/font&gt;&lt;br&gt;&lt;div&gt;&lt;span style=&quot;font-weight: normal;&quot;&gt;&lt;i&gt;&amp;lt;&amp;lt;Boundary&amp;gt;&amp;gt;&lt;/i&gt;&lt;/span&gt;&lt;/div&gt;" style="swimlane;fontStyle=1;align=center;verticalAlign=top;childLayout=stackLayout;horizontal=1;startSize=40;horizontalStack=0;resizeParent=1;resizeParentMax=0;resizeLast=0;collapsible=1;marginBottom=0;whiteSpace=wrap;html=1;" vertex="1" parent="1">
          <mxGeometry x="426" y="401" width="356" height="171" as="geometry" />
        </mxCell>
        <mxCell id="XFf1zaJcwKOp8VnSxDQC-35" value="+ initLight(): void&lt;br&gt;+ logLightIntensity(display: DisplayHandler&amp;amp;, x: int, y: int): void&lt;br&gt;+ sunSearch(Left: int, Right: int, Up: int, Down: int, display: DisplayHandler&amp;amp;): void" style="text;strokeColor=none;fillColor=none;align=left;verticalAlign=top;spacingLeft=4;spacingRight=4;overflow=hidden;rotatable=0;points=[[0,0.5],[1,0.5]];portConstraint=eastwest;whiteSpace=wrap;html=1;" vertex="1" parent="XFf1zaJcwKOp8VnSxDQC-34">
          <mxGeometry y="40" width="356" height="87" as="geometry" />
        </mxCell>
        <mxCell id="XFf1zaJcwKOp8VnSxDQC-36" value="" style="line;strokeWidth=1;fillColor=none;align=left;verticalAlign=middle;spacingTop=-1;spacingLeft=3;spacingRight=3;rotatable=0;labelPosition=right;points=[];portConstraint=eastwest;strokeColor=inherit;" vertex="1" parent="XFf1zaJcwKOp8VnSxDQC-34">
          <mxGeometry y="127" width="356" height="8" as="geometry" />
        </mxCell>
        <mxCell id="XFf1zaJcwKOp8VnSxDQC-37" value="- sensorPin: int" style="text;strokeColor=none;fillColor=none;align=left;verticalAlign=top;spacingLeft=4;spacingRight=4;overflow=hidden;rotatable=0;points=[[0,0.5],[1,0.5]];portConstraint=eastwest;whiteSpace=wrap;html=1;" vertex="1" parent="XFf1zaJcwKOp8VnSxDQC-34">
          <mxGeometry y="135" width="356" height="36" as="geometry" />
        </mxCell>
      </root>
    </mxGraphModel>
  </diagram>
</mxfile>
